<?xml version="1.0" encoding="iso-8859-1"?>
<!-- Uploaded to: SVG Repo, www.svgrepo.com, Generator: SVG Repo Mixer Tools -->
<svg height="800px" width="800px" version="1.1" id="Layer_1" xmlns="http://www.w3.org/2000/svg" xmlns:xlink="http://www.w3.org/1999/xlink" 
	 viewBox="0 0 512 512" xml:space="preserve">
<path style="fill:#EDEDED;" d="M301.011,413.538h123.78c43.503,0,78.769-35.266,78.769-78.769V233.495
	c0-74.576-60.457-135.033-135.033-135.033h-123.78"/>
<path style="fill:#D8D8DA;" d="M368.527,98.462h-33.758c74.576,0,135.033,60.457,135.033,135.033v101.275
	c0,43.503-35.266,78.769-78.769,78.769h33.758c43.503,0,78.769-35.266,78.769-78.769V233.495
	C503.56,158.918,443.104,98.462,368.527,98.462z"/>
<path style="fill:#E07188;" d="M87.209,413.538c-43.503,0-78.769-35.266-78.769-78.769S43.706,256,87.209,256
	c12.44,0,22.506-10.066,22.506-22.505c0-74.576,60.457-135.033,135.033-135.033S379.78,158.918,379.78,233.495v101.275
	c0,43.503-35.266,78.769-78.769,78.769H87.209z"/>
<path style="fill:#DC4161;" d="M244.747,98.462c-5.716,0-11.35,0.359-16.879,1.049c66.61,8.307,118.154,65.124,118.154,133.984
	v101.275c0,43.503-35.266,78.769-78.769,78.769h33.758c43.503,0,78.769-35.266,78.769-78.769V233.495
	C379.78,158.918,319.324,98.462,244.747,98.462z"/>
<circle style="fill:#F8F8F9;" cx="244.747" cy="233.495" r="22.505"/>
<path style="fill:#EDEDED;" d="M244.747,210.989c-2.986,0-5.831,0.594-8.44,1.651c8.245,3.34,14.066,11.411,14.066,20.855
	c0,9.442-5.821,17.514-14.066,20.855c2.608,1.057,5.453,1.651,8.44,1.651c12.43,0,22.505-10.076,22.505-22.505
	C267.253,221.065,257.177,210.989,244.747,210.989z"/>
<path style="fill:#F8F8F9;" d="M301.011,376.967H87.209c-23.268,0-42.198-18.929-42.198-42.198
	c0-23.268,18.929-42.198,42.198-42.198c32.576,0,59.077-26.501,59.077-59.077c0-54.292,44.169-98.462,98.462-98.462
	s98.462,44.169,98.462,98.462v101.275C343.209,358.038,324.279,376.967,301.011,376.967z M244.747,151.912
	c-44.985,0-81.582,36.597-81.582,81.582c0,41.883-34.073,75.956-75.956,75.956c-13.961,0-25.319,11.357-25.319,25.319
	c0,13.961,11.357,25.319,25.319,25.319h213.802c13.961,0,25.319-11.357,25.319-25.319V233.495
	C326.33,188.509,289.732,151.912,244.747,151.912z"/>
<g>
	<path style="fill:#2E2D31;" d="M368.527,90.022h-33.758c-4.661,0-8.44,3.779-8.44,8.44c0,4.661,3.779,8.44,8.44,8.44h33.758
		c69.804,0,126.593,56.789,126.593,126.593v101.275c0,38.779-31.55,70.33-70.33,70.33h-72.293
		c21.639-15.884,35.722-41.489,35.722-70.33V233.495c0-79.111-64.361-143.473-143.473-143.473s-143.473,64.361-143.473,143.473
		c0,7.757-6.309,14.066-14.066,14.066C39.121,247.56,0,286.682,0,334.769s39.121,87.209,87.209,87.209h337.582
		c48.086,0,87.209-39.122,87.209-87.209V233.495C512,154.383,447.639,90.022,368.527,90.022z M301.01,405.099H87.209
		c-38.779,0-70.33-31.55-70.33-70.33s31.55-70.33,70.33-70.33c17.064,0,30.945-13.881,30.945-30.945
		c0-69.804,56.789-126.593,126.593-126.593s126.593,56.789,126.593,126.593v101.275C371.341,373.548,339.79,405.099,301.01,405.099
		L301.01,405.099z"/>
	<path style="fill:#2E2D31;" d="M275.692,233.495c0-17.064-13.881-30.945-30.945-30.945s-30.945,13.881-30.945,30.945
		s13.881,30.945,30.945,30.945S275.692,250.558,275.692,233.495z M230.681,233.495c0-7.757,6.309-14.066,14.066-14.066
		c7.757,0,14.066,6.309,14.066,14.066c0,7.757-6.309,14.066-14.066,14.066C236.991,247.56,230.681,241.251,230.681,233.495z"/>
</g>
</svg>