<?xml version="1.0"?>
<svg xmlns="http://www.w3.org/2000/svg" id="Layer_1" data-name="Layer 1" viewBox="0 0 64 64"><title>Icons8 RSL Colored Part 11</title><polygon points="54 47 13 47 10 19 60 19 54 47" style="fill:#c2cde7;"/><rect x="10" y="15" width="52" height="4" style="fill:#f9e3ae;"/><circle cx="3" cy="5" r="2" style="fill:#f283a5;"/><circle cx="25" cy="55" r="4" style="fill:#ed7899;"/><circle cx="25" cy="55" r="2" style="fill:#f283a5;"/><polygon points="22 47 12 47 10 19 21 19 22 47" style="fill:#ced8ed;"/><path d="M10,19v2a3,3,0,0,0,3,3H44L42,47H54l6-28Z" style="fill:#b5c4e0;"/><circle cx="51" cy="51" r="12" style="fill:#ed7899;"/><path d="M14,26a1,1,0,0,0,1-1V23a1,1,0,0,0-2,0v2A1,1,0,0,0,14,26Z" style="fill:#8d6c9f;"/><path d="M19,26a1,1,0,0,0,1-1V23a1,1,0,0,0-2,0v2A1,1,0,0,0,19,26Z" style="fill:#8d6c9f;"/><path d="M24,26a1,1,0,0,0,1-1V23a1,1,0,0,0-2,0v2A1,1,0,0,0,24,26Z" style="fill:#8d6c9f;"/><path d="M29,26a1,1,0,0,0,1-1V23a1,1,0,0,0-2,0v2A1,1,0,0,0,29,26Z" style="fill:#8d6c9f;"/><path d="M34,26a1,1,0,0,0,1-1V23a1,1,0,0,0-2,0v2A1,1,0,0,0,34,26Z" style="fill:#8d6c9f;"/><path d="M39,26a1,1,0,0,0,1-1V23a1,1,0,0,0-2,0v2A1,1,0,0,0,39,26Z" style="fill:#8d6c9f;"/><path d="M44,26a1,1,0,0,0,1-1V23a1,1,0,0,0-2,0v2A1,1,0,0,0,44,26Z" style="fill:#8d6c9f;"/><path d="M49,26a1,1,0,0,0,1-1V23a1,1,0,0,0-2,0v2A1,1,0,0,0,49,26Z" style="fill:#8d6c9f;"/><path d="M54,26a1,1,0,0,0,1-1V23a1,1,0,0,0-2,0v2A1,1,0,0,0,54,26Z" style="fill:#8d6c9f;"/><path d="M56.67,39.32,60.81,20H61a3,3,0,0,0,0-6H10.72l-.28-3.55a7,7,0,0,0-4.49-6,3,3,0,1,0-.37,2,5,5,0,0,1,2.86,4.1l2.79,35.26a11.07,11.07,0,0,0,8.85,9.92A5,5,0,0,0,29.9,56H39A13,13,0,1,0,56.67,39.32ZM3,6A1,1,0,1,1,4,5,1,1,0,0,1,3,6ZM61,16a1,1,0,0,1,0,2H11l-.16-2ZM11.19,20H58.76l-4,18.57A12.95,12.95,0,0,0,41.64,42H15a1,1,0,0,0,0,2H40.06A13,13,0,0,0,39,46H13.26c0-.1,0-.19,0-.29ZM25,58a3,3,0,1,1,3-3A3,3,0,0,1,25,58Zm4.9-4a5,5,0,0,0-9.72-.25A9.08,9.08,0,0,1,13.72,48H38.36a12.57,12.57,0,0,0,0,6ZM51,62A11,11,0,1,1,62,51,11,11,0,0,1,51,62Z" style="fill:#8d6c9f;"/><path d="M55.95,46.05a1,1,0,0,0-1.41,0L51,49.59l-3.54-3.54a1,1,0,0,0-1.41,1.41L49.59,51l-3.54,3.54a1,1,0,1,0,1.41,1.41L51,52.41l3.54,3.54a1,1,0,0,0,1.41-1.41L52.41,51l3.54-3.54A1,1,0,0,0,55.95,46.05Z" style="fill:#faefde;"/></svg>
