<?xml version="1.0" encoding="iso-8859-1"?>
<!-- Uploaded to: SVG Repo, www.svgrepo.com, Generator: SVG Repo Mixer Tools -->
<svg height="800px" width="800px" version="1.1" id="Layer_1" xmlns="http://www.w3.org/2000/svg" xmlns:xlink="http://www.w3.org/1999/xlink" 
	 viewBox="0 0 392.563 392.563" xml:space="preserve">
<g>
	<path style="fill:#FFFFFF;" d="M131.62,129.275c8.145,0,16.097,0.84,23.855,2.263V98.956c0-6.012,4.848-10.925,10.925-10.925
		c6.012,0,10.925,4.848,10.925,10.925v38.465c11.572,4.331,22.432,10.214,32.194,17.455V98.827c0-6.012,4.848-10.925,10.925-10.925
		c6.012,0,10.925,4.848,10.925,10.925v56.954c0,5.107-3.556,9.374-8.275,10.537c10.15,9.762,18.618,21.075,25.277,33.616h50.489
		L364.8,54.673H103.628l18.295,74.99C125.091,129.405,128.323,129.275,131.62,129.275z"/>
	<path style="fill:#FFFFFF;" d="M131.62,151.061c-60.574,0-109.834,49.325-109.834,109.834s49.325,109.77,109.834,109.77
		c60.574,0,109.834-49.325,109.834-109.834S192.194,151.061,131.62,151.061z"/>
</g>
<polyline style="fill:#56ACE0;" points="234.15,178.148 284.638,178.148 330.796,76.459 131.297,76.459 144.549,130.31 "/>
<path style="fill:#FFC10D;" d="M131.62,348.879c-48.55,0-87.984-39.499-87.984-87.984s39.434-88.048,87.984-88.048
	s87.984,39.499,87.984,87.984S180.105,348.879,131.62,348.879z"/>
<path style="fill:#194F82;" d="M274.295,87.966c-6.012,0-10.925,4.848-10.925,10.925v56.954c0,6.012,4.848,10.925,10.925,10.925
	c6.077,0,10.925-4.848,10.925-10.925V98.891C285.22,92.879,280.307,87.966,274.295,87.966z"/>
<path style="fill:#FFC10D;" d="M316.251,281.647c-8.469,0-15.386,6.853-15.386,15.386c0,8.533,6.853,15.386,15.386,15.386
	s15.386-6.853,15.386-15.386C331.636,288.499,324.784,281.647,316.251,281.647z"/>
<g>
	<path style="fill:#194F82;" d="M351.677,199.934h-29.026l68.848-151.596c3.556-7.24-2.327-15.386-9.891-15.386H98.069l-6.335-24.63
		c-1.228-4.784-5.56-8.21-10.602-8.21H55.337c-6.012,0-10.925,4.848-10.925,10.925s4.848,10.925,10.925,10.925h17.39l27.604,111.192
		C42.796,147.118,0,199.029,0,260.831c0,72.533,59.022,131.62,131.62,131.62c65.616,0,120.113-48.226,130.004-111.063h20.945
		c-2.133,4.719-3.491,9.956-3.491,15.515c0,20.493,16.679,37.172,37.172,37.172s37.172-16.679,37.172-37.172
		c0-5.56-1.228-10.796-3.491-15.515h1.681c22.497,0,40.727-18.295,40.727-40.727C392.469,218.164,374.174,199.934,351.677,199.934z
		 M241.39,260.831c0,60.574-49.325,109.834-109.834,109.834s-109.77-49.261-109.77-109.834s49.325-109.77,109.834-109.77
		C192.194,151.061,241.39,200.257,241.39,260.831z M364.671,54.673l-65.939,145.261h-50.489
		c-6.594-12.541-15.127-23.855-25.277-33.616c4.719-1.164,8.275-5.43,8.275-10.537V98.827c0-6.012-4.848-10.925-10.925-10.925
		c-6.012,0-10.925,4.848-10.925,10.925v56.048c-9.826-7.176-20.622-13.123-32.194-17.455V98.891c0-6.012-4.848-10.925-10.925-10.925
		c-6.012,0-10.925,4.848-10.925,10.925v32.582c-7.758-1.422-15.709-2.263-23.855-2.263c-3.232,0-6.465,0.129-9.632,0.388
		l-18.23-74.925H364.671z M316.251,312.419c-8.469,0-15.386-6.853-15.386-15.386s6.853-15.386,15.386-15.386
		s15.386,6.853,15.386,15.386S324.784,312.419,316.251,312.419z M351.677,259.602h-88.501c-0.129-13.123-2.133-25.859-5.883-37.883
		h94.448c10.408,0,18.941,8.469,18.941,18.941S362.149,259.602,351.677,259.602z"/>
	<path style="fill:#194F82;" d="M173.317,257.275c4.267-4.267,4.267-11.119,0-15.386c-4.267-4.267-11.119-4.267-15.386,0
		l-15.386,15.386v-64.453c0-6.012-4.848-10.925-10.925-10.925c-6.077,0-10.925,4.848-10.925,10.925v64.453l-15.451-15.451
		c-4.267-4.267-11.119-4.267-15.386,0c-4.267,4.267-4.267,11.119,0,15.386l34.004,34.004c2.133,2.133,4.913,3.168,7.758,3.168
		c2.844,0,5.56-1.099,7.758-3.168L173.317,257.275z"/>
	<path style="fill:#194F82;" d="M183.725,294.447H131.62H79.515c-6.012,0-10.925,4.848-10.925,10.925s4.848,10.925,10.925,10.925
		h104.21c6.012,0,10.925-4.848,10.925-10.925S189.802,294.447,183.725,294.447z"/>
</g>
</svg>