<?xml version="1.0" encoding="iso-8859-1"?>
<!-- Uploaded to: SVG Repo, www.svgrepo.com, Generator: SVG Repo Mixer Tools -->
<svg version="1.1" id="Layer_1" xmlns="http://www.w3.org/2000/svg" xmlns:xlink="http://www.w3.org/1999/xlink" 
	 viewBox="0 0 512 512" xml:space="preserve">
<circle style="fill:#D35933;" cx="256" cy="256" r="256"/>
<path style="fill:#B54324;" d="M512,256c0-3.696-0.097-7.368-0.252-11.026L408.997,142.222l-8.982,10.125l-66.353-63.081
	l-29.608-1.489l-17.684,12.21h-3.55v48.269h51.819l36.564,36.564l-62.767,70.749l39.858,39.858l-26.331,10.733L190.311,174.89
	l-44.784,2.35l-11.629,30.498l3.872,66.363L96.108,398.222L204.75,506.864C221.31,510.23,238.447,512,256,512
	C397.384,512,512,397.384,512,256z"/>
<rect x="209.886" y="142.222" style="fill:#273B7A;" width="199.111" height="256"/>
<rect x="308.286" y="142.222" style="fill:#121149;" width="100.711" height="256"/>
<rect x="96.108" y="219.022" style="fill:#FEE187;" width="139.378" height="179.2"/>
<g>
	<rect x="165.788" y="219.022" style="fill:#FFC61B;" width="69.698" height="179.2"/>
	<path style="fill:#FFC61B;" d="M194.241,233.589c-3.332,0-6.034-2.701-6.034-6.034v-28.444c0-12.357-10.054-22.411-22.411-22.411
		c-12.357,0-22.411,10.054-22.411,22.411v28.444c0,3.332-2.701,6.034-6.034,6.034s-6.034-2.701-6.034-6.034v-28.444
		c0-19.011,15.467-34.478,34.478-34.478s34.478,15.467,34.478,34.478v28.444C200.275,230.888,197.572,233.589,194.241,233.589z"/>
</g>
<path style="fill:#EAA22F;" d="M165.797,164.633c-0.005,0-0.009,0-0.014,0V176.7c0.005,0,0.009,0,0.014,0
	c12.357,0,22.411,10.054,22.411,22.411v28.444c0,3.332,2.701,6.034,6.034,6.034s6.034-2.701,6.034-6.034v-28.444
	C200.275,180.1,184.808,164.633,165.797,164.633z"/>
<path style="fill:#386895;" d="M337.886,176.7c-3.332,0-6.034-2.701-6.034-6.034v-56.889c0-12.357-10.054-22.411-22.411-22.411
	s-22.411,10.054-22.411,22.411v56.889c0,3.332-2.701,6.034-6.034,6.034s-6.034-2.701-6.034-6.034v-56.889
	c0-19.011,15.467-34.478,34.478-34.478s34.478,15.467,34.478,34.478v56.889C343.919,173.999,341.218,176.7,337.886,176.7z"/>
<path style="fill:#273B7A;" d="M309.441,79.3c-0.388,0-0.764,0.045-1.148,0.059v12.067c0.383-0.021,0.76-0.059,1.148-0.059
	c12.357,0,22.411,10.054,22.411,22.411v56.889c0,3.332,2.701,6.034,6.034,6.034c3.332,0,6.034-2.701,6.034-6.034v-56.889
	C343.919,94.767,328.452,79.3,309.441,79.3z"/>
</svg>