<?xml version="1.0" encoding="iso-8859-1"?>
<!-- Uploaded to: SVG Repo, www.svgrepo.com, Generator: SVG Repo Mixer Tools -->
<svg height="800px" width="800px" version="1.1" id="Layer_1" xmlns="http://www.w3.org/2000/svg" xmlns:xlink="http://www.w3.org/1999/xlink" 
	 viewBox="0 0 512.001 512.001" xml:space="preserve">
<path style="fill:#95D6A6;" d="M426.668,213.576c-4.874-2.322-9.9-4.372-15.047-6.162c-0.741-0.257-1.485-0.502-2.229-0.748
	c-1.028-0.338-2.057-0.673-3.095-0.988c-0.762-0.233-1.527-0.458-2.295-0.681c-0.95-0.273-1.903-0.542-2.86-0.798
	c-0.764-0.205-1.532-0.398-2.3-0.592c-1.001-0.25-2.005-0.492-3.014-0.721c-0.731-0.168-1.465-0.326-2.2-0.482
	c-1.067-0.226-2.135-0.442-3.209-0.644c-0.674-0.128-1.348-0.249-2.025-0.367c-1.115-0.195-2.233-0.377-3.356-0.546
	c-0.68-0.102-1.358-0.202-2.041-0.296c-1.055-0.145-2.115-0.276-3.177-0.4c-0.714-0.082-1.431-0.159-2.148-0.23
	c-1.008-0.102-2.02-0.193-3.034-0.274c-0.836-0.067-1.674-0.127-2.513-0.179c-1.04-0.067-2.082-0.127-3.126-0.171
	c-0.499-0.021-0.997-0.044-1.499-0.06c-1.606-0.053-3.216-0.09-4.833-0.09c-1.782,0-3.554,0.036-5.32,0.097
	c-0.586,0.021-1.165,0.061-1.748,0.09c-1.179,0.055-2.357,0.111-3.53,0.195c-0.69,0.048-1.375,0.114-2.064,0.172
	c-1.058,0.09-2.115,0.181-3.167,0.292c-0.728,0.077-1.452,0.168-2.177,0.256c-1.003,0.121-2.004,0.246-2.999,0.387
	c-0.744,0.104-1.485,0.22-2.224,0.336c-0.973,0.152-1.941,0.313-2.907,0.484c-0.742,0.132-1.485,0.269-2.224,0.412
	c-0.954,0.185-1.906,0.38-2.854,0.582c-0.737,0.156-1.472,0.317-2.204,0.485c-0.946,0.216-1.887,0.447-2.826,0.683
	c-0.721,0.181-1.444,0.36-2.159,0.55c-0.949,0.253-1.893,0.523-2.834,0.795c-0.693,0.201-1.388,0.393-2.078,0.603
	c-0.978,0.297-1.95,0.616-2.92,0.932c-0.639,0.209-1.283,0.408-1.919,0.624c-1.104,0.378-2.197,0.779-3.29,1.182
	c-0.491,0.181-0.987,0.348-1.475,0.533c-1.552,0.59-3.089,1.206-4.615,1.846c-0.545,0.228-1.079,0.474-1.62,0.708
	c-0.994,0.431-1.988,0.859-2.97,1.311c-0.67,0.307-1.328,0.631-1.991,0.949c-0.842,0.401-1.682,0.801-2.516,1.217
	c-0.7,0.351-1.392,0.717-2.086,1.078c-0.782,0.407-1.564,0.814-2.338,1.234c-0.71,0.385-1.411,0.782-2.113,1.179
	c-0.741,0.418-1.482,0.841-2.216,1.271c-0.713,0.418-1.419,0.845-2.122,1.274c-0.708,0.432-1.414,0.869-2.113,1.313
	c-0.71,0.449-1.415,0.903-2.116,1.364c-0.678,0.445-1.35,0.897-2.02,1.354c-0.705,0.479-1.411,0.961-2.108,1.452
	c-0.644,0.455-1.283,0.922-1.921,1.388c-0.704,0.512-1.407,1.025-2.101,1.549c-0.606,0.458-1.203,0.929-1.802,1.397
	c-0.708,0.553-1.419,1.102-2.118,1.668c-0.545,0.441-1.075,0.895-1.614,1.341c-0.734,0.613-1.472,1.217-2.194,1.843
	c-0.317,0.274-0.626,0.562-0.939,0.839c-1.825,1.606-3.611,3.255-5.355,4.948c-0.242,0.235-0.491,0.462-0.731,0.698
	c-0.765,0.751-1.509,1.522-2.26,2.29c-0.395,0.408-0.799,0.809-1.192,1.22c-0.708,0.745-1.402,1.506-2.098,2.266
	c-0.411,0.451-0.828,0.899-1.233,1.354c-0.678,0.759-1.341,1.53-2.002,2.304c-0.402,0.469-0.806,0.939-1.205,1.414
	c-0.654,0.785-1.298,1.577-1.936,2.375c-0.381,0.476-0.762,0.954-1.138,1.435c-0.636,0.814-1.264,1.634-1.883,2.462
	c-0.356,0.476-0.708,0.954-1.058,1.435c-0.623,0.85-1.236,1.705-1.84,2.57c-0.321,0.461-0.637,0.926-0.954,1.391
	c-0.613,0.9-1.222,1.802-1.815,2.715c-0.273,0.421-0.54,0.849-0.809,1.273c-0.619,0.971-1.233,1.943-1.829,2.93
	c-0.472,0.784-0.932,1.572-1.391,2.364c-0.559,0.966-1.108,1.938-1.645,2.917c-0.346,0.627-0.687,1.256-1.024,1.887
	c-0.377,0.707-0.748,1.418-1.114,2.132c-0.341,0.67-0.674,1.344-1.006,2.02c-0.475,0.966-0.939,1.936-1.394,2.911
	c-0.454,0.978-0.902,1.961-1.335,2.951c-0.273,0.623-0.545,1.252-0.809,1.879c-0.566,1.337-1.118,2.681-1.644,4.036
	c-0.171,0.439-0.329,0.883-0.496,1.324c-0.445,1.176-0.873,2.359-1.289,3.548c-0.171,0.492-0.341,0.98-0.509,1.472
	c-0.505,1.503-0.991,3.015-1.452,4.538c-0.124,0.408-0.238,0.822-0.357,1.232c-0.336,1.152-0.66,2.31-0.97,3.472
	c-0.128,0.479-0.256,0.957-0.378,1.438c-0.383,1.5-0.747,3.008-1.084,4.525c-0.065,0.292-0.122,0.585-0.185,0.875
	c-0.283,1.317-0.549,2.638-0.796,3.967c-0.085,0.448-0.168,0.897-0.247,1.347c-0.28,1.583-0.546,3.17-0.777,4.77
	c-0.246,1.707-0.462,3.423-0.65,5.148c-0.004,0.03-0.009,0.064-0.013,0.094c-0.572,5.284-0.872,10.645-0.875,16.078
	c0,0.023,0,0.041,0,0.063c0,1.663,0.034,3.317,0.091,4.965c0.01,0.32,0.024,0.639,0.036,0.959c0.064,1.594,0.145,3.183,0.259,4.764
	c0.001,0.023,0.003,0.044,0.004,0.067c0.256,3.541,0.636,7.047,1.133,10.517h-0.003c10.358,72.302,72.689,128.061,147.811,128.061
	c82.341,0,149.332-66.99,149.332-149.332C512,289.028,477.075,237.586,426.668,213.576z M405.335,369.812h-21.333v21.333
	c0,11.782-9.552,21.333-21.333,21.333c-11.782,0-21.333-9.552-21.333-21.333v-21.333h-21.333c-11.782,0-21.333-9.552-21.333-21.333
	c0-11.782,9.552-21.333,21.333-21.333h21.333v-21.333c0-11.782,9.552-21.333,21.333-21.333c11.782,0,21.333,9.552,21.333,21.333
	v21.333h21.333c11.782,0,21.333,9.552,21.333,21.333C426.668,360.261,417.116,369.812,405.335,369.812z"/>
<path style="fill:#FFA733;" d="M447.995,113.775h-42.666h-20.467h-30.265h-30.266h-89.667h-90.893h-30.203H83.363H63.999H21.333
	C9.552,113.775,0,123.328,0,135.109c0,11.782,9.552,21.333,21.333,21.333H46.51l39.236,196.117
	c1.994,9.968,10.746,17.145,20.911,17.149l108.2,0.043c-0.496-3.469-0.878-6.975-1.131-10.517c-0.001-0.023-0.003-0.044-0.004-0.067
	c-0.112-1.58-0.196-3.17-0.259-4.764c-0.013-0.32-0.027-0.639-0.036-0.959c-0.054-1.65-0.091-3.302-0.091-4.965
	c0-5.453,0.302-10.836,0.876-16.141c0.004-0.03,0.009-0.064,0.013-0.094c0.186-1.708,0.398-3.408,0.641-5.099
	c0.003-0.017,0.006-0.033,0.009-0.05c0-0.004,0.001-0.009,0.001-0.013c0.23-1.596,0.495-3.18,0.775-4.759
	c0.08-0.449,0.162-0.899,0.247-1.347c0.247-1.328,0.512-2.65,0.796-3.967c0.063-0.292,0.119-0.583,0.185-0.875
	c0.336-1.516,0.7-3.025,1.084-4.525c0.122-0.481,0.252-0.959,0.378-1.438c0.31-1.162,0.633-2.321,0.97-3.472
	c0.087-0.296,0.159-0.594,0.247-0.889c0.034-0.115,0.075-0.228,0.11-0.343c0.459-1.523,0.946-3.036,1.452-4.538
	c0.166-0.492,0.339-0.98,0.509-1.472c0.415-1.189,0.845-2.372,1.289-3.548c0.166-0.441,0.326-0.885,0.496-1.324
	c0.526-1.355,1.079-2.699,1.644-4.036c0.266-0.627,0.536-1.254,0.809-1.879c0.435-0.99,0.882-1.973,1.335-2.951
	c0.192-0.411,0.367-0.831,0.563-1.24c0.269-0.563,0.558-1.112,0.832-1.671c0.331-0.676,0.664-1.35,1.006-2.02
	c0.366-0.714,0.737-1.425,1.114-2.132c0.336-0.631,0.678-1.26,1.024-1.887c0.538-0.978,1.087-1.951,1.645-2.917
	c0.422-0.731,0.845-1.462,1.279-2.185c0.036-0.06,0.075-0.118,0.111-0.179c0.596-0.986,1.212-1.958,1.829-2.93
	c0.27-0.424,0.536-0.852,0.809-1.273c0.593-0.914,1.203-1.815,1.815-2.715c0.317-0.464,0.633-0.929,0.954-1.391
	c0.604-0.863,1.219-1.719,1.84-2.57c0.35-0.481,0.703-0.959,1.058-1.435c0.619-0.828,1.247-1.648,1.883-2.462
	c0.375-0.481,0.755-0.959,1.138-1.435c0.639-0.798,1.281-1.59,1.936-2.375c0.397-0.475,0.802-0.944,1.205-1.414
	c0.661-0.774,1.326-1.545,2.002-2.304c0.405-0.455,0.822-0.903,1.233-1.354c0.694-0.759,1.388-1.519,2.098-2.266
	c0.393-0.412,0.796-0.812,1.192-1.22c0.75-0.768,1.495-1.539,2.26-2.29c0.24-0.236,0.489-0.464,0.731-0.698
	c1.742-1.691,3.528-3.342,5.355-4.948c0.314-0.277,0.623-0.563,0.939-0.839c0.722-0.624,1.461-1.23,2.194-1.843
	c0.539-0.447,1.069-0.902,1.614-1.341c0.698-0.565,1.409-1.115,2.118-1.668c0.599-0.468,1.196-0.937,1.802-1.397
	c0.694-0.523,1.397-1.037,2.101-1.549c0.637-0.465,1.277-0.932,1.921-1.388c0.697-0.492,1.402-0.974,2.108-1.452
	c0.67-0.457,1.341-0.91,2.02-1.354c0.701-0.461,1.407-0.914,2.116-1.364c0.7-0.444,1.405-0.88,2.113-1.313
	c0.703-0.43,1.409-0.856,2.122-1.274c0.734-0.431,1.473-0.853,2.216-1.271c0.703-0.397,1.404-0.794,2.113-1.179
	c0.774-0.421,1.556-0.828,2.338-1.234c0.694-0.361,1.387-0.727,2.086-1.078c0.833-0.417,1.675-0.816,2.516-1.217
	c0.664-0.317,1.323-0.641,1.991-0.949c0.981-0.451,1.975-0.88,2.97-1.311c0.54-0.235,1.075-0.481,1.62-0.708
	c1.526-0.64,3.063-1.256,4.615-1.846c0.488-0.185,0.984-0.353,1.475-0.533c1.092-0.402,2.185-0.804,3.29-1.182
	c0.634-0.216,1.279-0.415,1.919-0.624c0.97-0.317,1.941-0.634,2.92-0.932c0.69-0.209,1.385-0.402,2.078-0.603
	c0.943-0.27,1.884-0.542,2.834-0.795c0.717-0.191,1.439-0.37,2.159-0.55c0.939-0.236,1.88-0.465,2.826-0.683
	c0.732-0.168,1.468-0.327,2.204-0.485c0.949-0.203,1.9-0.397,2.854-0.582c0.741-0.144,1.482-0.28,2.224-0.412
	c0.966-0.171,1.934-0.33,2.907-0.484c0.74-0.115,1.48-0.232,2.224-0.336c0.996-0.142,1.997-0.267,2.999-0.387
	c0.725-0.088,1.451-0.179,2.177-0.256c1.051-0.111,2.108-0.202,3.167-0.292c0.688-0.058,1.374-0.124,2.064-0.172
	c1.172-0.084,2.349-0.139,3.53-0.195c0.583-0.028,1.162-0.068,1.748-0.09c1.766-0.061,3.538-0.097,5.32-0.097
	c1.618,0,3.227,0.036,4.833,0.09c0.501,0.016,0.998,0.038,1.499,0.06c0.575,0.026,1.152,0.04,1.727,0.071
	c0.468,0.026,0.932,0.071,1.399,0.1c0.839,0.053,1.677,0.112,2.513,0.179c1.014,0.082,2.025,0.173,3.034,0.274
	c0.717,0.073,1.434,0.148,2.148,0.23c1.062,0.124,2.122,0.256,3.177,0.4c0.333,0.046,0.673,0.08,1.004,0.127
	c0.347,0.05,0.69,0.117,1.035,0.169c1.124,0.169,2.241,0.351,3.356,0.546c0.677,0.118,1.351,0.239,2.025,0.367
	c0.508,0.095,1.023,0.176,1.527,0.276c0.565,0.112,1.118,0.249,1.681,0.368c0.735,0.155,1.469,0.316,2.2,0.482
	c1.008,0.229,2.012,0.471,3.014,0.721c0.768,0.192,1.536,0.387,2.3,0.592c0.957,0.256,1.91,0.523,2.86,0.798
	c0.442,0.128,0.892,0.24,1.334,0.373c0.323,0.097,0.64,0.209,0.963,0.309c1.037,0.319,2.066,0.65,3.095,0.988
	c0.744,0.247,1.489,0.492,2.229,0.748c0.313,0.11,0.631,0.206,0.944,0.317l10.254-51.288h25.176
	c11.782,0,21.333-9.552,21.333-21.333C469.328,123.328,459.777,113.775,447.995,113.775z"/>
<path style="fill:#806749;" d="M143.771,113.775l63.295-63.149c8.34-8.321,8.355-21.831,0.034-30.169
	c-8.324-8.343-21.831-8.357-30.171-0.036l-93.567,93.355h30.203h30.205V113.775z"/>
<path style="fill:#A78966;" d="M384.862,113.775l-92.495-91.914c-8.36-8.304-21.868-8.262-30.169,0.095
	c-8.306,8.357-8.263,21.864,0.094,30.169l62.038,61.65h30.266H384.862z"/>
<path style="fill:#FF7956;" d="M213.722,359.166c-0.112-1.58-0.196-3.17-0.259-4.764c-0.013-0.32-0.027-0.639-0.036-0.959
	c-0.054-1.65-0.091-3.302-0.091-4.965c0-5.453,0.302-10.836,0.876-16.141c0.004-0.03,0.009-0.064,0.013-0.094
	c0.186-1.708,0.398-3.408,0.641-5.099c0.003-0.017,0.006-0.033,0.009-0.05c0-0.004,0.001-0.009,0.001-0.013
	c0.23-1.596,0.495-3.18,0.775-4.759c0.08-0.449,0.162-0.899,0.247-1.347c0.247-1.328,0.512-2.65,0.796-3.967
	c0.063-0.292,0.119-0.583,0.185-0.875c0.336-1.516,0.7-3.025,1.084-4.525c0.122-0.481,0.252-0.959,0.378-1.438
	c0.31-1.162,0.633-2.321,0.97-3.472c0.087-0.296,0.159-0.594,0.247-0.889c0.034-0.115,0.075-0.228,0.11-0.343
	c0.459-1.523,0.946-3.036,1.451-4.538c0.166-0.492,0.339-0.98,0.509-1.472c0.415-1.189,0.845-2.372,1.289-3.548
	c0.166-0.439,0.326-0.885,0.496-1.324c0.526-1.355,1.079-2.699,1.644-4.036c0.266-0.627,0.536-1.254,0.809-1.879
	c0.435-0.99,0.882-1.973,1.337-2.951c0.192-0.411,0.367-0.831,0.562-1.24c0.269-0.563,0.558-1.112,0.832-1.671
	c0.331-0.676,0.664-1.35,1.006-2.02c0.366-0.714,0.738-1.425,1.114-2.132c0.336-0.631,0.678-1.26,1.024-1.887
	c0.538-0.978,1.087-1.951,1.645-2.917c0.422-0.731,0.845-1.462,1.279-2.185V113.775h-90.893h-30.205H83.363H63.999H21.333
	C9.552,113.775,0,123.328,0,135.109c0,11.782,9.552,21.333,21.333,21.333H46.51l39.236,196.117
	c1.994,9.968,10.746,17.145,20.911,17.149l108.2,0.043c-0.496-3.469-0.878-6.975-1.131-10.517
	C213.725,359.21,213.723,359.189,213.722,359.166z"/>
<path style="fill:#368B4C;" d="M341.335,305.813v21.333h-21.333c-11.782,0-21.333,9.552-21.333,21.333s9.552,21.333,21.333,21.333
	h21.333v21.333c0,11.782,9.552,21.333,21.333,21.333c11.782,0,21.333-9.552,21.333-21.333v-21.333h21.333
	c11.782,0,21.333-9.552,21.333-21.333s-9.552-21.333-21.333-21.333h-21.333v-21.333c0-11.782-9.552-21.333-21.333-21.333
	C350.887,284.48,341.335,294.03,341.335,305.813z"/>
<g>
	<path style="fill:#76B46D;" d="M395.827,202.885c-0.731-0.166-1.465-0.326-2.2-0.482
		C394.362,202.559,395.097,202.717,395.827,202.885z"/>
	<path style="fill:#76B46D;" d="M382.997,200.551c0.681,0.094,1.361,0.193,2.041,0.296c-0.346-0.053-0.688-0.119-1.035-0.169
		C383.67,200.631,383.33,200.597,382.997,200.551z"/>
	<path style="fill:#76B46D;" d="M401.142,204.198c-0.764-0.205-1.532-0.4-2.3-0.592C399.61,203.8,400.378,203.994,401.142,204.198z"
		/>
	<path style="fill:#76B46D;" d="M390.42,201.759c-0.674-0.128-1.348-0.249-2.025-0.367
		C389.07,201.511,389.746,201.632,390.42,201.759z"/>
	<path style="fill:#76B46D;" d="M374.639,199.645c-0.836-0.067-1.674-0.127-2.513-0.179
		C372.965,199.519,373.803,199.579,374.639,199.645z"/>
	<path style="fill:#76B46D;" d="M369,199.296c-0.501-0.021-0.997-0.044-1.499-0.06C368.003,199.251,368.501,199.274,369,199.296z"/>
	<path style="fill:#76B46D;" d="M411.621,207.413c-0.741-0.257-1.485-0.502-2.229-0.748
		C410.136,206.913,410.88,207.156,411.621,207.413z"/>
	<path style="fill:#76B46D;" d="M404,204.996c0.768,0.222,1.533,0.447,2.295,0.681c-0.323-0.098-0.639-0.21-0.963-0.309
		C404.892,205.236,404.444,205.124,404,204.996z"/>
	<path style="fill:#76B46D;" d="M379.82,200.152c-0.714-0.082-1.431-0.158-2.148-0.23
		C378.389,199.991,379.106,200.069,379.82,200.152z"/>
</g>
<path style="fill:#64C37D;" d="M341.335,391.145v-21.333h-21.333c-11.782,0-21.333-9.552-21.333-21.333
	c0-11.782,9.552-21.333,21.333-21.333h21.333v-21.333c0-11.782,9.552-21.333,21.333-21.333v-85.332c-1.782,0-3.554,0.036-5.32,0.097
	c-0.586,0.021-1.165,0.061-1.748,0.09c-1.179,0.055-2.357,0.111-3.53,0.195c-0.69,0.048-1.375,0.114-2.064,0.172
	c-1.058,0.091-2.115,0.181-3.167,0.292c-0.728,0.077-1.452,0.168-2.177,0.256c-1.003,0.121-2.004,0.246-2.999,0.387
	c-0.744,0.104-1.485,0.22-2.224,0.336c-0.973,0.152-1.941,0.313-2.907,0.484c-0.742,0.132-1.485,0.269-2.224,0.412
	c-0.954,0.185-1.906,0.38-2.854,0.582c-0.737,0.156-1.472,0.317-2.204,0.485c-0.946,0.216-1.887,0.447-2.826,0.683
	c-0.721,0.181-1.444,0.36-2.159,0.55c-0.949,0.253-1.893,0.523-2.834,0.795c-0.693,0.201-1.388,0.393-2.078,0.603
	c-0.978,0.297-1.95,0.616-2.92,0.932c-0.639,0.21-1.283,0.408-1.919,0.624c-1.104,0.378-2.197,0.779-3.29,1.182
	c-0.491,0.181-0.987,0.348-1.475,0.533c-1.552,0.59-3.089,1.206-4.615,1.846c-0.545,0.228-1.079,0.474-1.62,0.708
	c-0.994,0.431-1.988,0.859-2.97,1.311c-0.67,0.307-1.328,0.631-1.991,0.949c-0.842,0.401-1.684,0.801-2.517,1.217
	c-0.7,0.351-1.392,0.717-2.086,1.078c-0.782,0.407-1.564,0.814-2.337,1.234c-0.71,0.385-1.411,0.782-2.113,1.179
	c-0.741,0.418-1.482,0.841-2.216,1.271c-0.713,0.418-1.419,0.845-2.122,1.274c-0.708,0.432-1.414,0.869-2.113,1.313
	c-0.71,0.449-1.415,0.903-2.116,1.364c-0.678,0.445-1.35,0.897-2.02,1.354c-0.705,0.479-1.411,0.961-2.108,1.452
	c-0.644,0.455-1.283,0.922-1.921,1.388c-0.704,0.512-1.407,1.025-2.101,1.549c-0.606,0.458-1.203,0.929-1.802,1.397
	c-0.708,0.553-1.419,1.102-2.118,1.668c-0.545,0.439-1.075,0.895-1.614,1.341c-0.734,0.613-1.472,1.219-2.194,1.843
	c-0.317,0.274-0.624,0.562-0.939,0.839c-1.825,1.606-3.611,3.255-5.355,4.948c-0.242,0.235-0.491,0.462-0.731,0.698
	c-0.765,0.751-1.51,1.522-2.26,2.29c-0.395,0.408-0.799,0.809-1.192,1.22c-0.708,0.747-1.402,1.506-2.098,2.266
	c-0.411,0.451-0.828,0.899-1.233,1.354c-0.678,0.759-1.341,1.53-2.002,2.304c-0.402,0.469-0.806,0.939-1.205,1.414
	c-0.654,0.785-1.298,1.577-1.936,2.375c-0.383,0.476-0.762,0.954-1.138,1.435c-0.636,0.814-1.264,1.634-1.883,2.462
	c-0.356,0.476-0.708,0.954-1.058,1.435c-0.623,0.85-1.236,1.705-1.84,2.57c-0.321,0.461-0.637,0.926-0.954,1.391
	c-0.613,0.9-1.222,1.802-1.815,2.715c-0.273,0.421-0.54,0.849-0.809,1.273c-0.619,0.971-1.233,1.943-1.829,2.93
	c-0.472,0.784-0.932,1.572-1.391,2.364c-0.559,0.966-1.108,1.938-1.645,2.917c-0.346,0.627-0.687,1.256-1.024,1.887
	c-0.377,0.707-0.748,1.418-1.114,2.132c-0.341,0.67-0.674,1.344-1.006,2.02c-0.475,0.966-0.939,1.936-1.394,2.911
	c-0.454,0.98-0.902,1.961-1.337,2.951c-0.273,0.623-0.545,1.252-0.809,1.879c-0.565,1.337-1.118,2.681-1.644,4.036
	c-0.171,0.439-0.329,0.883-0.496,1.324c-0.445,1.176-0.873,2.359-1.289,3.548c-0.171,0.492-0.341,0.98-0.509,1.472
	c-0.505,1.503-0.991,3.015-1.451,4.538c-0.124,0.408-0.238,0.822-0.357,1.232c-0.336,1.152-0.66,2.31-0.97,3.472
	c-0.128,0.479-0.256,0.957-0.378,1.438c-0.384,1.5-0.747,3.008-1.084,4.525c-0.065,0.292-0.122,0.585-0.185,0.875
	c-0.283,1.317-0.549,2.638-0.796,3.967c-0.085,0.448-0.168,0.897-0.247,1.347c-0.28,1.583-0.546,3.17-0.777,4.77
	c-0.246,1.707-0.462,3.423-0.65,5.148c-0.004,0.03-0.009,0.064-0.013,0.094c-0.572,5.284-0.872,10.645-0.875,16.078
	c0,0.023,0,0.041,0,0.063c0,1.663,0.034,3.317,0.09,4.965c0.01,0.32,0.024,0.639,0.036,0.959c0.064,1.594,0.145,3.183,0.259,4.764
	c0.001,0.023,0.003,0.044,0.004,0.067c0.256,3.541,0.636,7.047,1.133,10.517h-0.003c10.358,72.302,72.689,128.061,147.811,128.061
	v-85.332C350.887,412.479,341.335,402.927,341.335,391.145z"/>
<g>
	<path style="fill:#679D5F;" d="M227.202,285.72c0.455-0.976,0.919-1.946,1.394-2.911c-0.274,0.559-0.563,1.108-0.832,1.671
		C227.569,284.89,227.394,285.309,227.202,285.72z"/>
	<path style="fill:#679D5F;" d="M230.716,278.657c-0.377,0.707-0.748,1.418-1.114,2.132
		C229.967,280.075,230.339,279.364,230.716,278.657z"/>
	<path style="fill:#679D5F;" d="M233.385,273.853c-0.559,0.966-1.108,1.938-1.645,2.917
		C232.276,275.792,232.825,274.819,233.385,273.853z"/>
	<path style="fill:#679D5F;" d="M213.726,359.233c0.253,3.541,0.634,7.047,1.131,10.517h0.003
		C214.363,366.28,213.982,362.774,213.726,359.233z"/>
	<path style="fill:#679D5F;" d="M215.899,320.978c-0.085,0.448-0.168,0.897-0.247,1.347
		C215.732,321.875,215.814,321.426,215.899,320.978z"/>
	<path style="fill:#679D5F;" d="M221.627,299.459c-0.169,0.492-0.341,0.98-0.509,1.472
		C221.285,300.439,221.456,299.949,221.627,299.459z"/>
	<path style="fill:#679D5F;" d="M213.465,354.403c0.063,1.594,0.145,3.183,0.259,4.764
		C213.61,357.586,213.529,355.997,213.465,354.403z"/>
	<path style="fill:#679D5F;" d="M213.428,353.444c-0.055-1.648-0.09-3.302-0.09-4.965c0-0.021,0-0.04,0-0.063
		c0.003-5.431,0.303-10.795,0.875-16.078c-0.575,5.303-0.876,10.688-0.876,16.141C213.337,350.142,213.374,351.794,213.428,353.444z
		"/>
	<path style="fill:#679D5F;" d="M216.879,316.135c-0.065,0.292-0.122,0.583-0.185,0.875
		C216.757,316.72,216.814,316.427,216.879,316.135z"/>
	<path style="fill:#679D5F;" d="M214.226,332.245c0.188-1.725,0.404-3.442,0.65-5.148c-0.003,0.017-0.006,0.033-0.009,0.05
		C214.624,328.836,214.412,330.535,214.226,332.245z"/>
	<path style="fill:#679D5F;" d="M219.31,306.702c0.119-0.41,0.233-0.823,0.357-1.232c-0.034,0.115-0.075,0.228-0.109,0.343
		C219.471,306.107,219.397,306.406,219.31,306.702z"/>
	<path style="fill:#679D5F;" d="M223.412,294.586c-0.171,0.439-0.329,0.883-0.496,1.324
		C223.083,295.469,223.241,295.026,223.412,294.586z"/>
	<path style="fill:#679D5F;" d="M225.866,288.671c-0.273,0.624-0.545,1.252-0.809,1.879
		C225.322,289.923,225.592,289.294,225.866,288.671z"/>
	<path style="fill:#679D5F;" d="M218.341,310.174c-0.127,0.479-0.256,0.957-0.378,1.438
		C218.085,311.131,218.213,310.653,218.341,310.174z"/>
	<path style="fill:#679D5F;" d="M321.426,204.96c-0.693,0.201-1.388,0.393-2.078,0.603
		C320.038,205.354,320.733,205.161,321.426,204.96z"/>
	<path style="fill:#679D5F;" d="M239.229,264.572c-0.613,0.9-1.222,1.802-1.815,2.715
		C238.008,266.374,238.616,265.472,239.229,264.572z"/>
	<path style="fill:#679D5F;" d="M316.428,206.496c-0.639,0.21-1.283,0.408-1.919,0.624
		C315.145,206.904,315.79,206.705,316.428,206.496z"/>
	<path style="fill:#679D5F;" d="M236.604,268.56c-0.619,0.971-1.233,1.943-1.829,2.93
		C235.371,270.503,235.987,269.531,236.604,268.56z"/>
	<path style="fill:#679D5F;" d="M311.221,208.302c-0.491,0.181-0.987,0.348-1.475,0.533
		C310.234,208.651,310.731,208.483,311.221,208.302z"/>
	<path style="fill:#679D5F;" d="M242.024,260.613c-0.623,0.85-1.236,1.705-1.84,2.57
		C240.788,262.319,241.401,261.463,242.024,260.613z"/>
	<path style="fill:#679D5F;" d="M251.246,249.188c-0.678,0.759-1.341,1.53-2.002,2.304
		C249.904,250.718,250.569,249.947,251.246,249.188z"/>
	<path style="fill:#679D5F;" d="M248.038,252.906c-0.654,0.785-1.297,1.577-1.936,2.375
		C246.74,254.484,247.384,253.691,248.038,252.906z"/>
	<path style="fill:#679D5F;" d="M244.965,256.716c-0.636,0.814-1.264,1.634-1.883,2.462
		C243.702,258.35,244.329,257.529,244.965,256.716z"/>
	<path style="fill:#679D5F;" d="M305.132,210.682c-0.545,0.228-1.079,0.474-1.62,0.708
		C304.052,211.155,304.587,210.909,305.132,210.682z"/>
	<path style="fill:#679D5F;" d="M352.07,199.527c-0.69,0.048-1.375,0.114-2.064,0.172
		C350.695,199.641,351.38,199.576,352.07,199.527z"/>
	<path style="fill:#679D5F;" d="M341.661,200.634c-0.744,0.104-1.485,0.22-2.224,0.336
		C340.176,200.856,340.917,200.739,341.661,200.634z"/>
	<path style="fill:#679D5F;" d="M346.839,199.991c-0.728,0.077-1.452,0.168-2.177,0.256
		C345.387,200.159,346.111,200.068,346.839,199.991z"/>
	<path style="fill:#679D5F;" d="M326.421,203.616c-0.721,0.181-1.444,0.36-2.159,0.55
		C324.977,203.976,325.699,203.797,326.421,203.616z"/>
	<path style="fill:#679D5F;" d="M357.348,199.244c-0.586,0.021-1.165,0.061-1.748,0.09
		C356.182,199.305,356.762,199.266,357.348,199.244z"/>
	<path style="fill:#679D5F;" d="M336.53,201.454c-0.742,0.132-1.485,0.269-2.224,0.412
		C335.045,201.723,335.787,201.585,336.53,201.454z"/>
	<path style="fill:#679D5F;" d="M255.768,244.348c0.749-0.768,1.495-1.539,2.26-2.29
		C257.263,242.809,256.518,243.58,255.768,244.348z"/>
	<path style="fill:#679D5F;" d="M331.451,202.449c-0.737,0.156-1.472,0.317-2.204,0.485
		C329.979,202.766,330.714,202.605,331.451,202.449z"/>
	<path style="fill:#679D5F;" d="M267.245,233.73c-0.734,0.613-1.472,1.219-2.194,1.843
		C265.773,234.947,266.513,234.343,267.245,233.73z"/>
	<path style="fill:#679D5F;" d="M296.034,214.867c-0.7,0.351-1.392,0.717-2.086,1.078
		C294.643,215.584,295.334,215.219,296.034,214.867z"/>
	<path style="fill:#679D5F;" d="M283.046,222.216c-0.71,0.449-1.415,0.903-2.116,1.364
		C281.631,223.119,282.336,222.667,283.046,222.216z"/>
	<path style="fill:#679D5F;" d="M274.88,227.774c-0.704,0.512-1.407,1.025-2.101,1.549
		C273.473,228.799,274.176,228.287,274.88,227.774z"/>
	<path style="fill:#679D5F;" d="M291.611,217.18c-0.71,0.385-1.411,0.782-2.113,1.179C290.2,217.962,290.901,217.567,291.611,217.18
		z"/>
	<path style="fill:#679D5F;" d="M270.977,230.721c-0.708,0.553-1.419,1.102-2.118,1.668
		C269.558,231.823,270.269,231.272,270.977,230.721z"/>
	<path style="fill:#679D5F;" d="M264.112,236.412c-1.825,1.606-3.611,3.255-5.355,4.948
		C260.501,239.668,262.288,238.018,264.112,236.412z"/>
	<path style="fill:#679D5F;" d="M254.576,245.568c-0.71,0.747-1.402,1.506-2.098,2.266
		C253.174,247.075,253.868,246.315,254.576,245.568z"/>
	<path style="fill:#679D5F;" d="M278.909,224.934c-0.705,0.479-1.411,0.961-2.108,1.452
		C277.498,225.895,278.203,225.413,278.909,224.934z"/>
	<path style="fill:#679D5F;" d="M287.281,219.63c-0.713,0.418-1.419,0.845-2.122,1.274
		C285.862,220.475,286.569,220.048,287.281,219.63z"/>
	<path style="fill:#679D5F;" d="M300.542,212.701c-0.67,0.307-1.328,0.631-1.991,0.949
		C299.215,213.333,299.874,213.008,300.542,212.701z"/>
</g>
</svg>