<?xml version="1.0" encoding="iso-8859-1"?>
<!-- Uploaded to: SVG Repo, www.svgrepo.com, Generator: SVG Repo Mixer Tools -->
<svg version="1.1" id="Layer_1" xmlns="http://www.w3.org/2000/svg" xmlns:xlink="http://www.w3.org/1999/xlink" 
	 viewBox="0 0 512 512" xml:space="preserve">
<polygon style="fill:#EFC27B;" points="260.956,142.315 260.956,492.115 505.816,492.115 505.816,142.315 383.386,19.885 "/>
<polygon style="fill:#ECB45C;" points="383.386,19.885 352.468,50.803 468.714,167.051 468.714,492.115 505.816,492.115 
	505.816,142.315 "/>
<polygon style="fill:#F8E99B;" points="259.713,40.376 12.367,287.722 185.509,460.864 432.855,213.518 432.855,40.376 "/>
<polygon style="fill:#F6E27D;" points="395.753,40.376 395.753,193.027 156.713,432.068 185.509,460.864 432.855,213.518 
	432.855,40.376 "/>
<circle style="fill:#797781;" cx="383.386" cy="89.849" r="12.367"/>
<rect x="117.298" y="207.517" transform="matrix(-0.7071 0.7071 -0.7071 -0.7071 538.4857 315.6572)" style="fill:#F8F8F9;" width="173.141" height="123.672"/>
<path style="fill:#2E2D31;" d="M509.284,135.756l-40.099-40.1c-3.621-3.621-9.494-3.621-13.117,0c-3.622,3.624-3.622,9.496,0,13.118
	l37.383,37.383V482.84H267.142v-93.58l169.182-169.182c1.74-1.74,2.717-4.099,2.717-6.56V40.376c0-5.124-4.153-9.275-9.275-9.275
	h-25.137l-17.774-17.774c-3.622-3.621-9.496-3.621-13.117,0L355.964,31.1h-99.343c-2.46,0-4.82,0.977-6.558,2.716L97.473,186.408
	c-3.622,3.624-3.622,9.496,0,13.118c3.622,3.621,9.496,3.621,13.117,0L260.464,49.651h160.024v160.024L251.376,378.787
	c-0.046,0.045-68.959,68.959-68.959,68.959L22.393,287.722l58.928-58.926c3.622-3.624,3.622-9.496,0-13.118
	c-3.622-3.621-9.496-3.621-13.117,0L2.717,281.162c-3.622,3.624-3.622,9.496,0,13.118l173.142,173.142
	c1.811,1.811,4.185,2.716,6.558,2.716c2.375,0,4.748-0.905,6.558-2.716l59.613-59.613v84.304c0,5.124,4.153,9.275,9.275,9.275
	h244.86c5.123,0,9.275-4.152,9.275-9.275V142.315C512,139.855,511.023,137.496,509.284,135.756z"/>
</svg>