<?xml version="1.0" encoding="iso-8859-1"?>
<!-- Uploaded to: SVG Repo, www.svgrepo.com, Generator: SVG Repo Mixer Tools -->
<svg version="1.1" id="Layer_1" xmlns="http://www.w3.org/2000/svg" xmlns:xlink="http://www.w3.org/1999/xlink" 
	 viewBox="0 0 512 512" xml:space="preserve">
<circle style="fill:#324A5E;" cx="256" cy="256" r="256"/>
<path style="fill:#2B3B4E;" d="M284.565,510.405c100.168-11.124,182.901-80.025,214.095-172.642L318.636,157.737l-1.203,3.639
	l-55.686-49.611l-44.822,44.822l76.714,76.714L190.798,416.637L284.565,510.405z"/>
<path style="fill:#FC6F58;" d="M323.025,162.126L256,95.101l-67.025,67.025c-5.651,5.651-8.826,13.317-8.826,21.309v210.22
	c0,16.644,13.493,30.136,30.136,30.136h91.431c16.644,0,30.136-13.493,30.136-30.136V183.437
	C331.852,175.444,328.676,167.779,323.025,162.126z M256,161.377c-8.463,0-15.324-6.861-15.324-15.324s6.861-15.324,15.324-15.324
	c8.463,0,15.324,6.861,15.324,15.324S264.463,161.377,256,161.377z"/>
<path style="fill:#F1543F;" d="M323.025,162.126L256,95.103v35.628c8.463,0,15.324,6.859,15.324,15.324s-6.859,15.324-15.324,15.324
	v262.416h45.715c16.644,0,30.136-13.493,30.136-30.136V183.437C331.852,175.444,328.676,167.779,323.025,162.126z"/>
<rect x="245.973" y="281.211" transform="matrix(-0.7071 -0.7071 0.7071 -0.7071 200.4091 752.1795)" style="fill:#E6F3FF;" width="20.026" height="106.745"/>
<polygon style="fill:#CFDBE6;" points="286.66,289.783 256,320.441 256,348.765 300.822,303.944 "/>
<path style="fill:#E6F3FF;" d="M228.123,323.672c-4.453,0-8.828-1.803-11.985-4.96c-3.143-3.158-4.96-7.518-4.96-11.985
	c0-4.467,1.817-8.826,4.96-11.985c3.158-3.143,7.532-4.96,11.985-4.96c4.467,0,8.826,1.817,11.983,4.96
	c3.16,3.158,4.961,7.532,4.961,11.985c0,4.467-1.801,8.826-4.961,11.985C236.949,321.87,232.589,323.672,228.123,323.672z"/>
<path style="fill:#CFDBE6;" d="M283.877,379.425c-4.453,0-8.828-1.803-11.971-4.96c-3.158-3.158-4.975-7.518-4.975-11.985
	s1.817-8.826,4.975-11.985c3.143-3.158,7.518-4.96,11.971-4.96c4.467,0,8.826,1.801,11.983,4.96
	c3.16,3.158,4.961,7.532,4.961,11.985c0,4.451-1.801,8.826-4.961,11.985C292.702,377.622,288.344,379.425,283.877,379.425z"/>
</svg>