<?xml version="1.0" encoding="iso-8859-1"?>
<!-- Uploaded to: SVG Repo, www.svgrepo.com, Generator: SVG Repo Mixer Tools -->
<svg height="800px" width="800px" version="1.1" id="Layer_1" xmlns="http://www.w3.org/2000/svg" xmlns:xlink="http://www.w3.org/1999/xlink" 
	 viewBox="0 0 512 512" xml:space="preserve">
<circle style="fill:#83CF8F;" cx="256" cy="256" r="256"/>
<ellipse style="fill:#75BD80;" cx="256" cy="421.6" rx="182.3" ry="14.4"/>
<path style="fill:#596366;" d="M66,67.2h380c12.5,0,22.7,10.2,22.7,22.7V324H43.3V89.9C43.3,77.4,53.6,67.2,66,67.2z"/>
<path style="fill:#6B7F9E;" d="M58.7,308.6h394.6V89.9c0-4-3.3-7.3-7.3-7.3H66c-4,0-7.3,3.3-7.3,7.3V308.6z"/>
<path style="fill:#FFFFFF;" d="M468.7,324v24.8c0,12.5-11.3,22.7-25,22.7H68.3c-13.8,0-25-10.2-25-22.7V324H468.7z"/>
<g>
	<circle style="fill:#E4E7ED;" cx="256" cy="346.8" r="7.8"/>
	<polygon style="fill:#E4E7ED;" points="305.1,407.3 341.1,418.8 170.8,418.8 200,407.3 200,371.6 305.1,371.6 	"/>
</g>
<polygon style="fill:#C6CBD6;" points="305.1,407.3 200,371.6 305.1,371.6 "/>
<g>
	<polygon style="fill:#ECF0F1;" points="200,407.3 305.1,407.3 341.1,418.8 341.1,423.8 256,423.8 170.8,423.8 170.8,418.8 	"/>
	<path style="fill:#ECF0F1;" d="M58.9,82.7h43.8v23.1c0,9.9-9.8,18-21.9,18l0,0c-12,0-21.9-8.1-21.9-18
		C58.9,105.8,58.9,82.7,58.9,82.7z"/>
</g>
<path style="fill:#FF7069;" d="M102.7,82.7h43.8v23.1c0,9.9-9.8,18-21.9,18l0,0c-12,0-21.9-8.1-21.9-18V82.7z"/>
<path style="fill:#ECF0F1;" d="M146.5,82.7h43.8v23.1c0,9.9-9.8,18-21.9,18l0,0c-12,0-21.9-8.1-21.9-18L146.5,82.7L146.5,82.7z"/>
<path style="fill:#FF7069;" d="M190.3,82.7h43.8v23.1c0,9.9-9.8,18-21.9,18l0,0c-12,0-21.9-8.1-21.9-18L190.3,82.7L190.3,82.7z"/>
<path style="fill:#ECF0F1;" d="M234.1,82.7h43.8v23.1c0,9.9-9.8,18-21.9,18l0,0c-12,0-21.9-8.1-21.9-18V82.7z"/>
<path style="fill:#FF7069;" d="M277.9,82.7h43.8v23.1c0,9.9-9.8,18-21.9,18l0,0c-12,0-21.9-8.1-21.9-18V82.7L277.9,82.7z"/>
<path style="fill:#ECF0F1;" d="M321.7,82.7h43.8v23.1c0,9.9-9.8,18-21.9,18l0,0c-12,0-21.9-8.1-21.9-18V82.7z"/>
<path style="fill:#FF7069;" d="M365.5,82.7h43.8v23.1c0,9.9-9.8,18-21.9,18l0,0c-12,0-21.9-8.1-21.9-18V82.7z"/>
<path style="fill:#ECF0F1;" d="M409.3,82.7h43.8v23.1c0,9.9-9.8,18-21.9,18l0,0c-12,0-21.9-8.1-21.9-18V82.7L409.3,82.7z"/>
<polygon style="fill:#E4E7ED;" points="58.9,82.7 102.7,82.7 102.7,89.5 58.9,89.5 "/>
<polygon style="fill:#F7635B;" points="102.7,82.7 146.5,82.7 146.5,89.5 102.7,89.5 "/>
<polygon style="fill:#E4E7ED;" points="146.5,82.7 190.3,82.7 190.3,89.5 146.5,89.5 "/>
<polygon style="fill:#F7635B;" points="190.3,82.7 234.1,82.7 234.1,89.5 190.3,89.5 "/>
<polygon style="fill:#E4E7ED;" points="234.1,82.7 277.9,82.7 277.9,89.5 234.1,89.5 "/>
<polygon style="fill:#F7635B;" points="277.9,82.7 321.7,82.7 321.7,89.5 277.9,89.5 "/>
<polygon style="fill:#E4E7ED;" points="321.7,82.7 365.5,82.7 365.5,89.5 321.7,89.5 "/>
<polygon style="fill:#F7635B;" points="365.5,82.7 409.3,82.7 409.3,89.5 365.5,89.5 "/>
<polygon style="fill:#E4E7ED;" points="409.3,82.7 453.1,82.7 453.1,89.5 409.3,89.5 "/>
<path style="fill:#FFE356;" d="M317.2,187.8h82.9c11.8,0,21.6,9.7,21.6,21.6v14.9c0,11.8-9.7,21.6-21.6,21.6h-82.9
	c-11.8,0-21.6-9.7-21.6-21.6v-14.9C295.6,197.6,305.3,187.8,317.2,187.8z"/>
<path style="fill:#FCD34E;" d="M421.7,217.6v6.6c0,11.9-9.7,21.6-21.6,21.6h-82.9c-11.8,0-21.6-9.7-21.6-21.6v-6.6H421.7z"/>
<path style="fill:#37414C;" d="M341.4,215.6c2.8-1,4.5-3.3,4.5-5.9c0-2.8-1.4-6.7-9.6-6.7c-2.4,0-4.8,0.3-6.3,0.6v26.6
	c1.2,0.1,3,0.3,5.4,0.3c4.5,0,7.4-0.8,9.2-2.5c1-0.9,2.3-2.6,2.3-5.4c0-3.8-2.6-6.1-5.4-6.7v-0.3H341.4z M334,214.4v-8.2
	c0.5-0.1,1.3-0.2,2.7-0.2c2.5,0,5.2,0.8,5.2,4.1c0,2.5-2.1,4.3-5.3,4.3L334,214.4L334,214.4z M334,217.4h2.3c3.2,0,6.3,1.3,6.3,4.9
	c0,3.6-2.8,5-6.1,5c-1,0-1.9-0.1-2.5-0.1L334,217.4L334,217.4z M370.2,203.1h-4.1v16.4c0,5.4-2.1,7.7-5.5,7.7
	c-3.1,0-5.4-2.3-5.4-7.7v-16.4h-4.1v16.2c0,8,3.8,11.3,9.3,11.3c5.8,0,9.8-3.4,9.8-11.4L370.2,203.1L370.2,203.1z M389.2,203.1
	l-3.2,7c-0.9,2-1.7,3.9-2.3,5.6h-0.1c-0.7-1.9-1.5-3.6-2.3-5.6l-3.2-7.1h-4.6l8,15.7V230h4.1v-11.4l8.4-15.7h-4.6h-0.2V203.1z"/>
<g>
	<polygon style="fill:#FFFFFF;" points="321.5,161.9 326.5,159.7 336.1,181.3 331.2,183.5 	"/>
	<polygon style="fill:#FFFFFF;" points="356.3,151.3 361.6,151.3 361.3,174.9 356,174.9 	"/>
	<polygon style="fill:#FFFFFF;" points="390.8,159.6 395.8,161.7 386.6,183.5 381.7,181.3 	"/>
	<polygon style="fill:#FFFFFF;" points="321.5,269.8 326.5,272 336.1,250.4 331.2,248.2 	"/>
	<polygon style="fill:#FFFFFF;" points="356.3,280.3 361.6,280.3 361.3,256.7 356,256.8 	"/>
	<polygon style="fill:#FFFFFF;" points="390.8,272 395.8,270 386.6,248.2 381.7,250.3 	"/>
</g>
<polygon style="fill:#ECF0F1;" points="397.1,216.2 397.1,216.2 423.6,232.3 413.6,233.2 425.6,253.9 415.9,259.3 404,238.8 
	398.7,246.5 "/>
<polygon style="fill:#FFFFFF;" points="397.1,216.2 397.1,216.2 423.6,232.3 413.6,233.2 425.6,253.9 420.5,256.8 397.1,216.5 "/>
<path style="fill:#ECF0F1;" d="M264,191.8L264,191.8c-22.2-2.4-44.4-4.7-66.6-7s-44.4-4.6-66.6-6.9c-3.8-0.4-6.1,2.5-5.2,6.5
	c3,13.4,6,26.9,9,40.3c3,13.4,6,26.8,9,40.2c0.9,4,3.8,7.2,6.5,7.2c15.6,0,31.3,0,46.9,0h34.4v5.2c0,0.8-0.6,1.4-1.4,1.4h-71.4
	c-0.8,0-1.4,0.6-1.4,1.4v4.5c0,0.8,0.6,1.4,1.4,1.4h72.7h5.8c0.8,0,1.4-0.6,1.4-1.4v-5.8v-6.5h5.2c2.6,0,5.6-2.7,6.5-6.1
	c3.2-11.3,6.3-22.6,9.4-33.8c3.2-11.3,6.3-22.5,9.4-33.8C270.2,195.2,267.8,192.2,264,191.8z M155.8,258.8c-0.1,0-0.1,0-0.3,0
	c-1.2,0-2.5-1.4-2.8-3.2c-1.9-10.2-3.6-20.4-5.5-30.7s-3.6-20.5-5.5-30.7c-0.3-1.7,0.8-3,2.3-2.8c0.1,0.1,0.3,0.1,0.4,0.1h-0.1
	c1.6,0.1,3.1,1.7,3.4,3.4c1.7,10.1,3.2,20.3,4.9,30.5c1.6,10.2,3.2,20.3,4.9,30.5C157.8,257.4,157.1,258.8,155.8,258.8z
	 M171.9,257.9c-0.1,0-0.3,0-0.3,0c-1.2-0.1-2.4-1.4-2.6-3.1c-1.1-10-2.3-20-3.4-30c-1.1-10-2.2-20-3.4-30c-0.2-1.7,1-2.9,2.5-2.8
	c0.1,0.1,0.3,0.1,0.4,0.1h0.1c1.6,0.1,3,1.7,3.2,3.3c0.9,10,1.9,19.9,2.8,29.8c0.9,9.9,1.8,19.8,2.8,29.7
	C174,256.6,173.1,257.9,171.9,257.9z M188.3,258.2c-0.1,0-0.2,0-0.3,0c-1.2-0.1-2.3-1.4-2.4-3c-0.5-9.8-0.9-19.5-1.3-29.2
	c-0.4-9.8-0.9-19.5-1.3-29.2c-0.1-1.7,1.2-2.8,2.8-2.7c0.1,0.1,0.3,0.1,0.4,0.1l0.1-0.1c1.6,0.2,2.9,1.7,3,3.2
	c0.3,9.7,0.5,19.4,0.7,29c0.3,9.7,0.5,19.4,0.7,29C190.5,256.9,189.5,258.2,188.3,258.2z M208.3,227.5c-0.5,9.4-1,18.8-1.4,28.3
	c-0.1,1.6-1.2,2.8-2.4,2.8c-0.1,0-0.2,0-0.3,0c-1.2-0.1-2.2-1.4-2.1-3c0.3-9.5,0.6-19,0.8-28.5c0.3-9.5,0.6-19,0.8-28.5
	c0-1.6,1.4-2.8,3-2.6c0.1,0.1,0.3,0.1,0.4,0.1V196c1.7,0.2,2.8,1.6,2.8,3.2C209.2,208.6,208.8,218,208.3,227.5z M230.4,201.1
	c-1.2,9.1-2.4,18.4-3.6,27.5c-1.2,9.1-2.4,18.4-3.6,27.5c-0.2,1.5-1.4,2.8-2.6,2.8c-0.1,0-0.2,0-0.3,0c-1.2-0.1-2.1-1.3-1.9-2.9
	c1-9.2,2-18.4,3-27.7c1-9.2,2-18.5,3-27.7c0.1-1.6,1.6-2.7,3.2-2.5c0.1,0.1,0.3,0.1,0.4,0.1V198
	C229.5,198.2,230.6,199.6,230.4,201.1z M251,203.7c-1.9,8.9-3.8,17.8-5.6,26.7c-1.9,8.9-3.8,17.8-5.6,26.7c-0.3,1.5-1.6,2.7-2.8,2.7
	c-0.1,0-0.2,0-0.3,0c-1.2,0-2-1.2-1.7-2.8c1.7-8.9,3.4-17.9,5-27c1.7-8.9,3.4-17.9,5-27c0.3-1.5,1.8-2.6,3.4-2.5
	c0.1,0,0.3,0.1,0.4,0.1v-0.1C250.3,200.9,251.4,202.2,251,203.7z"/>
<path style="fill:#C6CBD6;" d="M266.2,197.4l-4.8,16.7l-12.2-1.2c0.6-3,1.3-6.1,1.9-9c0.3-1.5-0.8-2.8-2.3-3c-0.1,0-0.3-0.1-0.4-0.1
	c-1.6-0.1-3.1,1-3.4,2.5c-0.6,3-1.1,6-1.7,9l-14-1.4l1.2-9.8c0.2-1.5-1-2.9-2.5-3.1c-0.1,0-0.3,0-0.4-0.1c-1.6-0.1-3,1-3.2,2.5
	c-0.3,3.2-0.7,6.5-1,9.7l-14.1-1.4c0.1-3.2,0.3-6.5,0.5-9.7c0.1-1.6-1.1-3-2.8-3.2c-0.1,0-0.3,0-0.4-0.1c-1.6-0.1-3,1-3,2.6
	c-0.1,3.2-0.2,6.5-0.3,9.7l-14.1-1.4c-0.1-3.2-0.1-6.4-0.2-9.6c-0.1-1.6-1.4-3-3-3.2c-0.1,0-0.3,0-0.4-0.1c-1.6-0.1-2.8,1-2.8,2.7
	c0.1,3.2,0.3,6.4,0.4,9.6l-14.2-1.4c-0.3-3.2-0.6-6.3-0.9-9.6c-0.1-1.7-1.6-3.2-3.2-3.3c-0.1,0-0.3,0-0.4-0.1
	c-1.6-0.1-2.8,1.1-2.5,2.8c0.3,3.2,0.7,6.3,1.1,9.5l-14.2-1.4c-0.4-2.7-0.9-5.4-1.3-8.1c-0.3-1.7-1.8-3.2-3.4-3.4
	c-0.1,0-0.3,0-0.4-0.1c-1.6-0.1-2.6,1.1-2.3,2.8c0.5,2.7,1,5.4,1.4,8.1l-10.1-1l-7.5-17l140.5,13L266.2,197.4z"/>
<path style="fill:#ECF0F1;" d="M271.6,189.7L96.5,172.9l-0.1-24.3c0-1.5-1.2-2.8-2.7-2.8l-4.7-0.1c-1.5-0.1-2.8,1.2-2.8,2.6l0.1,32
	c0,1.5,1.2,2.8,2.7,2.8h0.2c0.3,0.1,0.6,0.2,0.9,0.2l180,17.3c1.7,0.1,3.1-1,3.3-2.6l0.6-5.1C274.4,191.2,273.2,189.8,271.6,189.7
	L271.6,189.7z"/>
<path style="fill:#FFFFFF;" d="M269.7,191.9L149.6,180c-0.8-0.1-1.7,0.6-1.7,1.4l0,0c-0.1,0.8,0.6,1.7,1.4,1.7l120,11.9
	c0.8,0.1,1.7-0.6,1.7-1.4l0,0C271.1,192.8,270.5,192,269.7,191.9z"/>
</svg>