<?xml version="1.0" encoding="iso-8859-1"?>
<!-- Generator: Adobe Illustrator 19.2.1, SVG Export Plug-In . SVG Version: 6.00 Build 0)  -->
<svg version="1.1" id="Layer_1" xmlns="http://www.w3.org/2000/svg" xmlns:xlink="http://www.w3.org/1999/xlink" x="0px" y="0px"
	 viewBox="0 0 40 40" style="enable-background:new 0 0 40 40;" xml:space="preserve">
<path style="fill:none;stroke:#5E9C76;stroke-linecap:round;stroke-miterlimit:10;" d="M38.368,11.682L34.9,24.395
	c-0.177,0.65-0.772,1.105-1.447,1.105H12.911"/>
<path style="fill:none;stroke:#66798F;stroke-miterlimit:10;" d="M3,1.5h2.119c2.093,0,3.882,1.505,4.241,3.567l4.498,25.866
	c0.359,2.062,2.148,3.567,4.241,3.567H35"/>
<g>
	<circle style="fill:#BAE0BD;" cx="3" cy="3" r="1.5"/>
	<path style="fill:#5E9C76;" d="M3,2c0.551,0,1,0.449,1,1S3.551,4,3,4S2,3.551,2,3S2.449,2,3,2 M3,1C1.895,1,1,1.895,1,3
		s0.895,2,2,2s2-0.895,2-2S4.105,1,3,1L3,1z"/>
</g>
<g>
	<circle style="fill:#B0C1D4;" cx="31.5" cy="36.5" r="2"/>
	<path style="fill:#66798F;" d="M31.5,35c0.827,0,1.5,0.673,1.5,1.5S32.327,38,31.5,38c-0.827,0-1.5-0.673-1.5-1.5
		S30.673,35,31.5,35 M31.5,34c-1.381,0-2.5,1.119-2.5,2.5s1.119,2.5,2.5,2.5s2.5-1.119,2.5-2.5S32.881,34,31.5,34L31.5,34z"/>
</g>
<g>
	<circle style="fill:#B0C1D4;" cx="18.5" cy="36.5" r="2"/>
	<path style="fill:#66798F;" d="M18.5,35c0.827,0,1.5,0.673,1.5,1.5S19.327,38,18.5,38S17,37.327,17,36.5S17.673,35,18.5,35
		 M18.5,34c-1.381,0-2.5,1.119-2.5,2.5s1.119,2.5,2.5,2.5s2.5-1.119,2.5-2.5S19.881,34,18.5,34L18.5,34z"/>
</g>
<g>
	<g>
		<polygon style="fill:#8BB7F0;" points="26.5,12.5 15.5,12.5 15.5,9.5 26.5,9.5 26.5,5.207 32.293,11 26.5,16.793 		"/>
	</g>
	<g>
		<path style="fill:#4E7AB5;" d="M27,6.414L31.586,11L27,15.586V13v-1h-1H16v-2h10h1V9V6.414 M26,4v5H15v4h11v5l7-7L26,4L26,4z"/>
	</g>
</g>
</svg>
